PathFileType	4	(X/Y/Z)	s11c0301.trc
DataRate	CameraRate	NumFrames	NumMarkers	Units	OrigDataRate	OrigDataStartFrame	OrigNumFrames
200	200	6	48	mm	200	500	2000
Frame#	Time	racr			lacr			c7			jug			rlel			rdr			llel			ldr			s2			lic			ric			lasi			rasi			rpsi			lpsi			rgt			lgt			rth1			rth2			rth3			rth4			rlfc			rmfc			rsh1			rsh2			rsh3			rsh4			rlmal			rcal			rtoe			rmt5			lth1			lth2			lth4			lth3			llfc			lmfc			llmal			lcal			lmt5			lsh1			lsh2			lsh3			lsh4			ltoe			SBIKE			LBIKE			RBIKE			
		X1	Y1	Z1	X2	Y2	Z2	X3	Y3	Z3	X4	Y4	Z4	X5	Y5	Z5	X6	Y6	Z6	X7	Y7	Z7	X8	Y8	Z8	X9	Y9	Z9	X10	Y10	Z10	X11	Y11	Z11	X12	Y12	Z12	X13	Y13	Z13	X14	Y14	Z14	X15	Y15	Z15	X16	Y16	Z16	X17	Y17	Z17	X18	Y18	Z18	X19	Y19	Z19	X20	Y20	Z20	X21	Y21	Z21	X22	Y22	Z22	X23	Y23	Z23	X24	Y24	Z24	X25	Y25	Z25	X26	Y26	Z26	X27	Y27	Z27	X28	Y28	Z28	X29	Y29	Z29	X30	Y30	Z30	X31	Y31	Z31	X32	Y32	Z32	X33	Y33	Z33	X34	Y34	Z34	X35	Y35	Z35	X36	Y36	Z36	X37	Y37	Z37	X38	Y38	Z38	X39	Y39	Z39	X40	Y40	Z40	X41	Y41	Z41	X42	Y42	Z42	X43	Y43	Z43	X44	Y44	Z44	X45	Y45	Z45	X46	Y46	Z46	X47	Y47	Z47	X48	Y48	Z48	
500	2.5000	715.548752	1376.041614	-72.195320	721.007280	1374.575544	-382.256970	693.678142	1475.759117	-233.653224	663.837259	1295.331076	-232.273106	610.758158	1127.462767	38.291406	781.065446	941.098964	-70.488192	583.227380	1142.843975	-556.250290	786.174789	924.299367	-470.033118	94.311296	1348.602594	-269.757176	310.105901	1298.956502	-465.666632	299.325658	1333.790183	-68.559878	325.624336	1222.703668	-436.065350	312.576563	1264.762570	-112.746888	148.149137	1416.197905	-221.857897	149.869095	1397.904054	-318.842485	251.790086	1217.916863	-47.442377	180.922846	1176.247464	-465.049355	361.503102	1119.406054	-57.507537	442.355506	1084.524371	-73.601042	493.978849	1014.868336	-86.616808	461.901500	1113.385890	-86.756466	580.010742	941.379492	-114.183186	568.663495	922.783521	-246.447730	507.211113	797.042014	-91.947362	476.175262	715.029233	-105.644002	411.558511	657.172152	-99.729338	496.390032	704.361545	-138.819129	317.145261	545.978934	-101.204353	245.293200	549.720057	-143.828322	502.511550	421.288077	-154.599925	431.684942	419.897329	-81.434898	246.665759	1038.283840	-481.650503	295.503884	968.252340	-475.114655	329.905311	979.841152	-468.692360	303.171724	878.988321	-470.551915	333.481763	738.396089	-444.338691	346.287147	730.361849	-317.935731	79.878606	383.387169	-422.450589	15.252297	378.765922	-385.780901	139.945119	209.587142	-447.666150	257.439711	633.124319	-465.508426	231.283214	553.276481	-448.241877	167.456342	492.268737	-445.204166	257.269894	540.746117	-422.533564	228.552740	165.680458	-385.065308	-214.352576	957.690450	-254.629715	-17.638654	82.258619	-460.632638	-17.564352	81.520152	-62.003015	
501	2.5050	715.723785	1372.417465	-71.863676	721.126048	1369.317881	-381.816873	695.318908	1472.770177	-233.067697	663.591797	1292.990017	-232.005452	608.532834	1124.466880	37.682213	780.384308	941.263978	-70.395265	581.846288	1140.822114	-557.683544	785.699699	923.870458	-470.236908	95.347557	1351.391625	-270.431156	310.237299	1299.905857	-466.062071	299.406698	1333.012091	-68.963441	324.920499	1222.554180	-437.415965	312.141698	1263.726674	-112.848850	151.160245	1418.483635	-225.826870	151.338718	1399.625979	-318.808796	250.696679	1218.073363	-48.272485	181.716040	1178.123490	-466.033833	358.407410	1116.766286	-58.205687	438.677204	1080.294984	-74.038072	489.123397	1009.818767	-86.968533	458.903880	1109.064483	-86.855187	574.092011	934.765692	-115.023264	562.639197	915.633486	-245.752063	503.027308	788.502422	-92.441144	472.992984	706.328887	-106.516834	409.296616	647.366005	-100.526224	492.433625	695.733516	-140.559433	316.666489	535.533834	-102.477207	244.419236	536.350515	-144.736278	506.521169	418.084340	-154.209436	435.559663	414.029653	-81.243793	248.989523	1040.283523	-482.668404	298.327142	970.698716	-475.856298	332.572249	982.576204	-469.273105	306.734813	881.494868	-471.279237	337.668955	741.226444	-445.427624	349.599428	733.584589	-318.827861	77.183438	390.702714	-421.745372	12.643551	386.933786	-385.185502	134.979829	216.203916	-447.703958	259.962071	636.367465	-465.962432	232.494923	557.171307	-448.444385	167.565984	497.163607	-444.795658	258.243259	544.313092	-422.561489	222.941645	171.024467	-385.073901	-214.432628	957.460533	-254.861732	-17.650686	81.998274	-460.692850	-17.589338	81.401101	-62.026220	
502	2.5100	716.076687	1368.843574	-71.541484	721.210908	1364.274208	-382.108753	696.900797	1469.836501	-232.524604	663.382105	1290.486355	-232.071916	606.323451	1121.807227	36.954496	779.545796	941.024714	-70.280597	580.593822	1138.585831	-559.201584	785.314300	923.436301	-470.207394	96.241613	1353.679499	-270.921432	310.503052	1300.688198	-466.496648	299.649400	1331.721235	-69.385781	324.288096	1222.298269	-438.794245	311.912488	1261.943743	-113.240311	153.862412	1420.096387	-228.599421	152.794031	1401.052999	-319.369591	249.938841	1216.751492	-49.894973	182.825111	1179.900332	-467.202044	355.597274	1113.421290	-58.778165	435.213200	1075.644441	-74.379031	484.317865	1004.090327	-87.263994	456.149944	1104.029262	-87.006091	568.001460	927.619941	-115.206023	556.302186	907.557985	-244.521243	498.601385	779.341614	-93.101052	469.445960	696.835699	-107.138924	406.823409	637.324615	-100.994272	489.242931	687.221790	-140.944005	315.878364	524.673084	-103.467367	243.448221	522.769502	-145.756212	509.988383	414.241605	-153.591844	438.850903	407.604846	-80.994992	251.224130	1042.306691	-483.673204	300.913416	973.028358	-476.623765	335.052891	985.102580	-469.936063	309.941001	883.825606	-471.997723	341.590985	743.815665	-446.495391	352.761985	736.685080	-319.652088	74.439338	398.238829	-420.877101	9.882980	395.216837	-384.686457	130.307687	223.224026	-447.737325	262.323471	639.465778	-466.465581	233.363805	560.802606	-448.457713	167.230133	502.308113	-444.445087	258.921639	547.705043	-422.649381	217.787843	177.002442	-385.129758	-214.471919	957.343387	-255.183189	-17.706800	81.777395	-460.724184	-17.636390	81.303594	-62.083496	
503	2.5150	716.519099	1365.239659	-71.251011	721.363452	1359.835600	-383.242405	698.459464	1467.090188	-232.118649	663.354717	1288.251246	-232.138933	604.266640	1119.245758	36.237543	778.594852	940.726374	-70.280763	579.529720	1136.390001	-560.872895	784.979180	923.075192	-470.230796	97.202821	1355.628216	-271.590451	310.832163	1301.247562	-466.885460	300.020426	1329.856659	-69.805059	323.825323	1221.885502	-439.971474	311.842182	1259.794635	-113.622729	155.810651	1420.902565	-229.424006	154.029471	1402.025461	-319.355917	249.090586	1214.276670	-51.250415	183.838968	1181.341714	-468.139911	352.998579	1109.372321	-59.315440	431.988739	1070.129992	-74.624075	479.754034	997.608985	-87.535276	453.477011	1098.115731	-87.293709	561.513006	919.304900	-114.950268	549.982848	899.076435	-243.618173	493.652054	769.952656	-93.378671	465.553245	687.185173	-108.706083	403.863512	626.127199	-101.983435	484.695036	677.605345	-141.939465	315.087017	513.556307	-104.170520	242.694762	508.949461	-146.821620	513.068431	409.979791	-152.752748	441.694400	400.816700	-80.570504	253.343121	1044.133822	-484.742625	303.405193	975.103304	-477.456824	337.388938	987.280100	-470.809462	312.799739	885.992335	-472.767951	345.152156	746.102673	-447.571163	355.848767	739.521324	-320.433487	71.667378	405.897213	-420.187167	7.104536	403.479916	-384.274226	125.799646	230.577984	-447.957871	264.487950	642.494288	-467.079171	233.926388	564.660468	-448.653668	166.685017	507.502478	-444.445449	259.428931	550.965166	-423.017658	212.990089	183.627064	-385.407449	-214.517418	957.231255	-255.368942	-17.762660	81.528206	-460.867126	-17.708439	81.217063	-62.124643	
504	2.5200	717.004765	1361.800584	-70.981556	721.643612	1356.417224	-385.116658	699.939125	1464.578514	-231.740393	663.695289	1285.992198	-232.209583	601.949987	1116.625216	35.056984	777.532222	940.360954	-70.464216	578.632028	1133.963915	-562.619391	784.506335	922.820586	-470.305200	98.036653	1356.911238	-272.970577	311.276265	1301.601276	-467.297159	300.513792	1327.523686	-70.228207	323.476408	1221.456835	-441.057330	311.919101	1257.064127	-114.065949	157.308511	1421.036806	-229.799864	155.267781	1402.598994	-320.041890	248.111109	1211.081273	-52.271516	185.214078	1182.830587	-469.409180	350.604931	1104.972319	-59.841744	428.889475	1064.316871	-74.793352	475.538854	990.916562	-88.128310	450.911876	1091.664389	-87.373280	555.781208	910.793349	-116.301946	544.011625	890.708009	-243.905745	488.129501	760.271641	-93.308089	461.720703	676.878638	-109.342629	401.098496	614.973824	-102.513902	480.644372	668.035908	-142.732032	314.008270	501.868853	-104.939973	242.207096	495.188943	-147.883209	515.609831	405.122727	-151.781967	444.061068	393.540533	-80.066775	255.391252	1045.830739	-485.835736	305.702162	977.059096	-478.410280	339.625281	989.402722	-471.823527	315.515322	887.989255	-473.590934	348.421469	748.139811	-448.627985	358.949493	742.047697	-321.296861	68.966589	413.637977	-419.718681	4.292746	411.928002	-383.950625	121.480753	238.223055	-448.463615	266.602849	645.584915	-467.814046	234.356085	568.515049	-449.111974	165.968501	512.791672	-444.800444	259.668783	554.241121	-423.678941	208.593655	190.732092	-385.752019	-214.582248	957.147709	-255.565692	-17.801789	81.390559	-460.920458	-17.768830	81.131816	-62.169320	
505	2.5250	717.449414	1358.658896	-70.539494	722.143164	1354.013055	-387.443801	701.338861	1461.904509	-231.356208	664.028262	1283.975393	-232.664075	599.778222	1114.074496	34.009195	776.475974	940.060498	-70.442106	577.992994	1131.545137	-564.403700	783.886800	922.647749	-470.351032	98.895068	1357.667698	-273.538661	311.832741	1301.814654	-467.663546	300.984811	1324.677444	-70.474843	323.387573	1221.077512	-441.936064	312.251809	1253.875621	-114.340096	158.444498	1420.559319	-229.918662	156.466662	1402.799332	-320.435565	247.098961	1207.529722	-53.113360	186.452318	1183.891466	-470.483202	348.417499	1100.130406	-60.338987	425.994077	1057.911647	-75.012822	471.215635	983.725738	-88.502059	448.587253	1084.975906	-87.441513	548.836817	901.721947	-114.037125	538.182272	881.725282	-242.325407	482.699429	750.071619	-93.277479	457.674912	666.445976	-109.737485	398.177437	603.355377	-102.907007	476.545466	658.108058	-143.262792	313.243841	490.355692	-105.407771	241.862305	481.774392	-148.507102	517.835757	399.625312	-151.210687	446.339430	385.952419	-79.720234	257.376912	1047.382478	-486.938753	307.887918	978.807974	-479.431188	341.770577	991.275238	-472.966235	318.032249	889.780596	-474.599936	351.646710	749.975277	-449.937458	362.003742	744.266321	-322.196233	66.357545	421.384736	-419.529002	1.591830	420.430169	-383.659457	117.501132	246.213520	-449.120297	268.583431	648.719569	-468.426406	234.745055	572.347680	-449.846668	165.187151	518.131625	-445.302955	259.801741	557.482233	-424.421194	204.720529	198.509354	-386.323201	-214.668689	957.054510	-255.648186	-17.876003	81.190414	-460.977259	-17.852720	81.065777	-62.150338	
